<svg xmlns="http://www.w3.org/2000/svg" viewBox="0 0 900 620"><defs><linearGradient id="g" x1="0" x2="1"><stop stop-color="#0d4ea6"/><stop offset="1" stop-color="#0aa68f"/></linearGradient><filter id="s"><feDropShadow dy="14" stdDeviation="13" flood-opacity=".2"/></filter></defs><rect width="900" height="620" rx="44" fill="#f7fbff"/><path d="M0 500c180-80 360-70 500 0s250 80 400 0v120H0z" fill="#e6f7f3"/><g filter="url(#s)"><rect x="160" y="95" width="530" height="420" rx="34" fill="white"/><rect x="160" y="95" width="530" height="96" rx="34" fill="url(#g)"/><rect x="160" y="145" width="530" height="46" fill="url(#g)"/><circle cx="245" cy="145" r="18" fill="white"/><circle cx="605" cy="145" r="18" fill="white"/><g fill="#dfe9f5"><rect x="215" y="235" width="95" height="70" rx="16"/><rect x="335" y="235" width="95" height="70" rx="16"/><rect x="455" y="235" width="95" height="70" rx="16"/><rect x="575" y="235" width="65" height="70" rx="16"/></g><circle cx="283" cy="390" r="66" fill="#0aa68f"/><path d="M250 390l22 22 44-52" fill="none" stroke="white" stroke-width="16" stroke-linecap="round" stroke-linejoin="round"/><rect x="380" y="350" width="210" height="20" rx="10" fill="#d9e5f2"/><rect x="380" y="395" width="170" height="20" rx="10" fill="#d9e5f2"/><rect x="380" y="440" width="120" height="20" rx="10" fill="#d9e5f2"/></g><path d="M708 360l90 40-90 40z" fill="#ffb000"/></svg>
